<mxfile host="app.diagrams.net" modified="2024-06-16T06:24:13.132Z" agent="Mozilla/5.0 (Windows NT 10.0; Win64; x64) AppleWebKit/537.36 (KHTML, like Gecko) Chrome/126.0.0.0 Safari/537.36 Edg/126.0.0.0" etag="e8Zlphkkdrtmkrdg9ROy" version="24.5.4" type="github" pages="2">
  <diagram name="Safety" id="c4acf3e9-155e-7222-9cf6-157b1a14988f">
    <mxGraphModel dx="1045" dy="985" grid="1" gridSize="10" guides="1" tooltips="1" connect="1" arrows="1" fold="1" page="1" pageScale="1" pageWidth="850" pageHeight="1100" background="none" math="0" shadow="0">
      <root>
        <mxCell id="0" />
        <mxCell id="1" parent="0" />
        <mxCell id="5d2195bd80daf111-5" value="Classname" style="swimlane;html=1;fontStyle=0;childLayout=stackLayout;horizontal=1;startSize=26;fillColor=none;horizontalStack=0;resizeParent=1;resizeLast=0;collapsible=1;marginBottom=0;swimlaneFillColor=#ffffff;rounded=0;shadow=0;comic=0;labelBackgroundColor=none;strokeWidth=1;fontFamily=Verdana;fontSize=10;align=center;" parent="1" vertex="1">
          <mxGeometry x="630" y="810" width="160" height="83" as="geometry" />
        </mxCell>
        <mxCell id="5d2195bd80daf111-6" value="+ field: type" style="text;html=1;strokeColor=none;fillColor=none;align=left;verticalAlign=top;spacingLeft=4;spacingRight=4;whiteSpace=wrap;overflow=hidden;rotatable=0;points=[[0,0.5],[1,0.5]];portConstraint=eastwest;" parent="5d2195bd80daf111-5" vertex="1">
          <mxGeometry y="26" width="160" height="26" as="geometry" />
        </mxCell>
        <mxCell id="5d2195bd80daf111-7" value="+ field: type" style="text;html=1;strokeColor=none;fillColor=none;align=left;verticalAlign=top;spacingLeft=4;spacingRight=4;whiteSpace=wrap;overflow=hidden;rotatable=0;points=[[0,0.5],[1,0.5]];portConstraint=eastwest;" parent="5d2195bd80daf111-5" vertex="1">
          <mxGeometry y="52" width="160" height="26" as="geometry" />
        </mxCell>
        <mxCell id="5d2195bd80daf111-13" value="&amp;laquo;interface&amp;raquo;&lt;br&gt;&lt;b&gt;Name&lt;/b&gt;" style="html=1;rounded=0;shadow=0;comic=0;labelBackgroundColor=none;strokeWidth=1;fontFamily=Verdana;fontSize=10;align=center;" parent="1" vertex="1">
          <mxGeometry x="480" y="810" width="110" height="50" as="geometry" />
        </mxCell>
        <mxCell id="5d2195bd80daf111-20" value="&lt;p style=&quot;margin:0px;margin-top:4px;text-align:center;&quot;&gt;&lt;i&gt;&amp;lt;&amp;lt;Interface&amp;gt;&amp;gt;&lt;/i&gt;&lt;br/&gt;&lt;b&gt;Interface&lt;/b&gt;&lt;/p&gt;&lt;hr size=&quot;1&quot;/&gt;&lt;p style=&quot;margin:0px;margin-left:4px;&quot;&gt;+ field1: Type&lt;br/&gt;+ field2: Type&lt;/p&gt;&lt;hr size=&quot;1&quot;/&gt;&lt;p style=&quot;margin:0px;margin-left:4px;&quot;&gt;+ method1(Type): Type&lt;br/&gt;+ method2(Type, Type): Type&lt;/p&gt;" style="verticalAlign=top;align=left;overflow=fill;fontSize=12;fontFamily=Helvetica;html=1;rounded=0;shadow=0;comic=0;labelBackgroundColor=none;strokeWidth=1" parent="1" vertex="1">
          <mxGeometry x="160" y="830" width="190" height="140" as="geometry" />
        </mxCell>
        <mxCell id="M2q0sgIVt3zOWK69sO0r-18" value="" style="group" vertex="1" connectable="0" parent="1">
          <mxGeometry x="20" y="20" width="820" height="590" as="geometry" />
        </mxCell>
        <mxCell id="17acba5748e5396b-1" value="pkg" style="shape=umlFrame;whiteSpace=wrap;html=1;rounded=0;shadow=0;comic=0;labelBackgroundColor=none;strokeWidth=1;fontFamily=Verdana;fontSize=10;align=center;" parent="M2q0sgIVt3zOWK69sO0r-18" vertex="1">
          <mxGeometry width="820" height="590" as="geometry" />
        </mxCell>
        <mxCell id="M2q0sgIVt3zOWK69sO0r-16" value="" style="rounded=0;whiteSpace=wrap;html=1;fillColor=none;dashed=1;" vertex="1" parent="M2q0sgIVt3zOWK69sO0r-18">
          <mxGeometry x="35" y="140" width="535" height="280" as="geometry" />
        </mxCell>
        <mxCell id="5d2195bd80daf111-18" value="&lt;p style=&quot;margin:0px;margin-top:4px;text-align:center;&quot;&gt;&lt;i&gt;&amp;lt;&amp;lt;Interface&amp;gt;&amp;gt;&lt;/i&gt;&lt;br&gt;&lt;b&gt;businesslogicservicce.safetyblservice.SafetyBLService&lt;/b&gt;&lt;/p&gt;&lt;hr size=&quot;1&quot;&gt;&lt;p style=&quot;margin:0px;margin-left:4px;&quot;&gt;&lt;br&gt;&lt;/p&gt;&lt;hr size=&quot;1&quot;&gt;&lt;p style=&quot;margin:0px;margin-left:4px;&quot;&gt;&lt;br&gt;&lt;/p&gt;" style="verticalAlign=top;align=left;overflow=fill;fontSize=12;fontFamily=Helvetica;html=1;rounded=0;shadow=0;comic=0;labelBackgroundColor=none;strokeWidth=1" parent="M2q0sgIVt3zOWK69sO0r-18" vertex="1">
          <mxGeometry x="120" y="30" width="340" height="83" as="geometry" />
        </mxCell>
        <mxCell id="M2q0sgIVt3zOWK69sO0r-2" value="" style="rounded=0;orthogonalLoop=1;jettySize=auto;html=1;endArrow=block;endFill=0;dashed=1;dashPattern=8 8;" edge="1" parent="M2q0sgIVt3zOWK69sO0r-18" source="M2q0sgIVt3zOWK69sO0r-1" target="5d2195bd80daf111-18">
          <mxGeometry relative="1" as="geometry" />
        </mxCell>
        <mxCell id="M2q0sgIVt3zOWK69sO0r-1" value="&lt;p style=&quot;margin:0px;margin-top:4px;text-align:center;&quot;&gt;&lt;b&gt;SafetyController&lt;/b&gt;&lt;br&gt;&lt;/p&gt;&lt;hr size=&quot;1&quot; style=&quot;border-style:solid;&quot;&gt;&lt;p style=&quot;margin:0px;margin-left:4px;&quot;&gt;&lt;br&gt;&lt;/p&gt;&lt;hr size=&quot;1&quot; style=&quot;border-style:solid;&quot;&gt;&lt;p style=&quot;margin:0px;margin-left:4px;&quot;&gt;&lt;br&gt;&lt;/p&gt;" style="verticalAlign=top;align=left;overflow=fill;html=1;whiteSpace=wrap;" vertex="1" parent="M2q0sgIVt3zOWK69sO0r-18">
          <mxGeometry x="210" y="160" width="160" height="60" as="geometry" />
        </mxCell>
        <mxCell id="M2q0sgIVt3zOWK69sO0r-5" value="" style="rounded=0;orthogonalLoop=1;jettySize=auto;html=1;endArrow=diamond;endFill=1;" edge="1" parent="M2q0sgIVt3zOWK69sO0r-18" source="M2q0sgIVt3zOWK69sO0r-3" target="M2q0sgIVt3zOWK69sO0r-1">
          <mxGeometry relative="1" as="geometry" />
        </mxCell>
        <mxCell id="M2q0sgIVt3zOWK69sO0r-8" value="" style="rounded=0;orthogonalLoop=1;jettySize=auto;html=1;endArrow=open;endFill=0;dashed=1;dashPattern=8 8;" edge="1" parent="M2q0sgIVt3zOWK69sO0r-18" source="M2q0sgIVt3zOWK69sO0r-3" target="M2q0sgIVt3zOWK69sO0r-6">
          <mxGeometry relative="1" as="geometry" />
        </mxCell>
        <mxCell id="M2q0sgIVt3zOWK69sO0r-10" style="rounded=0;orthogonalLoop=1;jettySize=auto;html=1;exitX=1;exitY=0.5;exitDx=0;exitDy=0;endArrow=none;endFill=0;" edge="1" parent="M2q0sgIVt3zOWK69sO0r-18" source="M2q0sgIVt3zOWK69sO0r-3" target="M2q0sgIVt3zOWK69sO0r-9">
          <mxGeometry relative="1" as="geometry" />
        </mxCell>
        <mxCell id="M2q0sgIVt3zOWK69sO0r-3" value="&lt;p style=&quot;margin:0px;margin-top:4px;text-align:center;&quot;&gt;&lt;b&gt;Safety&lt;/b&gt;&lt;br&gt;&lt;/p&gt;&lt;hr size=&quot;1&quot; style=&quot;border-style:solid;&quot;&gt;&lt;p style=&quot;margin:0px;margin-left:4px;&quot;&gt;&lt;br&gt;&lt;/p&gt;&lt;hr size=&quot;1&quot; style=&quot;border-style:solid;&quot;&gt;&lt;p style=&quot;margin:0px;margin-left:4px;&quot;&gt;&lt;br&gt;&lt;/p&gt;" style="verticalAlign=top;align=left;overflow=fill;html=1;whiteSpace=wrap;" vertex="1" parent="M2q0sgIVt3zOWK69sO0r-18">
          <mxGeometry x="240" y="280" width="100" height="60" as="geometry" />
        </mxCell>
        <mxCell id="M2q0sgIVt3zOWK69sO0r-6" value="&lt;p style=&quot;margin:0px;margin-top:4px;text-align:center;&quot;&gt;&lt;i&gt;&amp;lt;&amp;lt;Interface&amp;gt;&amp;gt;&lt;/i&gt;&lt;br&gt;&lt;b&gt;dataservice.safetydataservice.SafetyDataService&lt;/b&gt;&lt;/p&gt;&lt;hr size=&quot;1&quot;&gt;&lt;p style=&quot;margin:0px;margin-left:4px;&quot;&gt;&lt;br&gt;&lt;/p&gt;&lt;hr size=&quot;1&quot;&gt;&lt;p style=&quot;margin:0px;margin-left:4px;&quot;&gt;&lt;br&gt;&lt;/p&gt;" style="verticalAlign=top;align=left;overflow=fill;fontSize=12;fontFamily=Helvetica;html=1;rounded=0;shadow=0;comic=0;labelBackgroundColor=none;strokeWidth=1" vertex="1" parent="M2q0sgIVt3zOWK69sO0r-18">
          <mxGeometry x="145" y="470" width="290" height="83" as="geometry" />
        </mxCell>
        <mxCell id="M2q0sgIVt3zOWK69sO0r-9" value="&lt;p style=&quot;margin:0px;margin-top:4px;text-align:center;&quot;&gt;&lt;i&gt;&amp;lt;&amp;lt;Interface&amp;gt;&amp;gt;&lt;/i&gt;&lt;br&gt;&lt;b&gt;CardInfo&lt;/b&gt;&lt;/p&gt;&lt;hr size=&quot;1&quot;&gt;&lt;p style=&quot;margin:0px;margin-left:4px;&quot;&gt;&lt;br&gt;&lt;/p&gt;&lt;hr size=&quot;1&quot;&gt;&lt;p style=&quot;margin:0px;margin-left:4px;&quot;&gt;&lt;br&gt;&lt;/p&gt;" style="verticalAlign=top;align=left;overflow=fill;fontSize=12;fontFamily=Helvetica;html=1;rounded=0;shadow=0;comic=0;labelBackgroundColor=none;strokeWidth=1" vertex="1" parent="M2q0sgIVt3zOWK69sO0r-18">
          <mxGeometry x="440" y="268.5" width="100" height="83" as="geometry" />
        </mxCell>
        <mxCell id="M2q0sgIVt3zOWK69sO0r-12" value="" style="rounded=0;orthogonalLoop=1;jettySize=auto;html=1;endArrow=block;endFill=0;dashed=1;dashPattern=8 8;" edge="1" parent="M2q0sgIVt3zOWK69sO0r-18" source="M2q0sgIVt3zOWK69sO0r-11" target="M2q0sgIVt3zOWK69sO0r-9">
          <mxGeometry relative="1" as="geometry" />
        </mxCell>
        <mxCell id="M2q0sgIVt3zOWK69sO0r-11" value="&lt;p style=&quot;margin:0px;margin-top:4px;text-align:center;&quot;&gt;&lt;b style=&quot;text-wrap: nowrap;&quot;&gt;businesslogic.cardbl.Card&lt;/b&gt;&lt;br&gt;&lt;/p&gt;&lt;hr size=&quot;1&quot; style=&quot;border-style:solid;&quot;&gt;&lt;p style=&quot;margin:0px;margin-left:4px;&quot;&gt;&lt;br&gt;&lt;/p&gt;&lt;hr size=&quot;1&quot; style=&quot;border-style:solid;&quot;&gt;&lt;p style=&quot;margin:0px;margin-left:4px;&quot;&gt;&lt;br&gt;&lt;/p&gt;" style="verticalAlign=top;align=left;overflow=fill;html=1;whiteSpace=wrap;" vertex="1" parent="M2q0sgIVt3zOWK69sO0r-18">
          <mxGeometry x="600" y="280" width="160" height="60" as="geometry" />
        </mxCell>
        <mxCell id="M2q0sgIVt3zOWK69sO0r-15" value="&lt;b style=&quot;text-wrap: nowrap;&quot;&gt;businesslogic.safetybl 包&lt;/b&gt;" style="shape=note;whiteSpace=wrap;html=1;backgroundOutline=1;darkOpacity=0.05;size=9;" vertex="1" parent="M2q0sgIVt3zOWK69sO0r-18">
          <mxGeometry x="400" y="140" width="170" height="20" as="geometry" />
        </mxCell>
      </root>
    </mxGraphModel>
  </diagram>
  <diagram id="BR4gax-_9A5NHZaPHoTu" name="WithDraw">
    <mxGraphModel dx="1833" dy="736" grid="1" gridSize="10" guides="1" tooltips="1" connect="1" arrows="1" fold="1" page="1" pageScale="1" pageWidth="1169" pageHeight="827" math="0" shadow="0">
      <root>
        <mxCell id="0" />
        <mxCell id="1" parent="0" />
        <mxCell id="FDOjT2-U-1UDbjflAcAx-1" value="" style="group" vertex="1" connectable="0" parent="1">
          <mxGeometry x="30" y="10" width="820" height="620" as="geometry" />
        </mxCell>
        <mxCell id="FDOjT2-U-1UDbjflAcAx-2" value="pkg" style="shape=umlFrame;whiteSpace=wrap;html=1;rounded=0;shadow=0;comic=0;labelBackgroundColor=none;strokeWidth=1;fontFamily=Verdana;fontSize=10;align=center;" vertex="1" parent="FDOjT2-U-1UDbjflAcAx-1">
          <mxGeometry width="820" height="620" as="geometry" />
        </mxCell>
        <mxCell id="FDOjT2-U-1UDbjflAcAx-3" value="" style="rounded=0;whiteSpace=wrap;html=1;fillColor=none;dashed=1;" vertex="1" parent="FDOjT2-U-1UDbjflAcAx-1">
          <mxGeometry x="180" y="140" width="390" height="310" as="geometry" />
        </mxCell>
        <mxCell id="FDOjT2-U-1UDbjflAcAx-4" value="&lt;p style=&quot;margin:0px;margin-top:4px;text-align:center;&quot;&gt;&lt;i&gt;&amp;lt;&amp;lt;Interface&amp;gt;&amp;gt;&lt;/i&gt;&lt;br&gt;&lt;b&gt;businesslogicservice.withdrawblservice.WithdrawBLService&lt;/b&gt;&lt;/p&gt;&lt;hr size=&quot;1&quot;&gt;&lt;p style=&quot;margin:0px;margin-left:4px;&quot;&gt;&lt;br&gt;&lt;/p&gt;&lt;hr size=&quot;1&quot;&gt;&lt;p style=&quot;margin:0px;margin-left:4px;&quot;&gt;&lt;br&gt;&lt;/p&gt;" style="verticalAlign=top;align=left;overflow=fill;fontSize=12;fontFamily=Helvetica;html=1;rounded=0;shadow=0;comic=0;labelBackgroundColor=none;strokeWidth=1" vertex="1" parent="FDOjT2-U-1UDbjflAcAx-1">
          <mxGeometry x="110" y="30" width="360" height="83" as="geometry" />
        </mxCell>
        <mxCell id="FDOjT2-U-1UDbjflAcAx-5" value="" style="rounded=0;orthogonalLoop=1;jettySize=auto;html=1;endArrow=block;endFill=0;dashed=1;dashPattern=8 8;" edge="1" parent="FDOjT2-U-1UDbjflAcAx-1" source="FDOjT2-U-1UDbjflAcAx-6" target="FDOjT2-U-1UDbjflAcAx-4">
          <mxGeometry relative="1" as="geometry" />
        </mxCell>
        <mxCell id="FDOjT2-U-1UDbjflAcAx-6" value="&lt;p style=&quot;margin:0px;margin-top:4px;text-align:center;&quot;&gt;&lt;b&gt;WithdrawController&lt;/b&gt;&lt;br&gt;&lt;/p&gt;&lt;hr size=&quot;1&quot; style=&quot;border-style:solid;&quot;&gt;&lt;p style=&quot;margin:0px;margin-left:4px;&quot;&gt;&lt;br&gt;&lt;/p&gt;&lt;hr size=&quot;1&quot; style=&quot;border-style:solid;&quot;&gt;&lt;p style=&quot;margin:0px;margin-left:4px;&quot;&gt;&lt;br&gt;&lt;/p&gt;" style="verticalAlign=top;align=left;overflow=fill;html=1;whiteSpace=wrap;" vertex="1" parent="FDOjT2-U-1UDbjflAcAx-1">
          <mxGeometry x="210" y="160" width="160" height="60" as="geometry" />
        </mxCell>
        <mxCell id="FDOjT2-U-1UDbjflAcAx-7" value="" style="rounded=0;orthogonalLoop=1;jettySize=auto;html=1;endArrow=diamond;endFill=1;" edge="1" parent="FDOjT2-U-1UDbjflAcAx-1" source="FDOjT2-U-1UDbjflAcAx-10" target="FDOjT2-U-1UDbjflAcAx-6">
          <mxGeometry relative="1" as="geometry" />
        </mxCell>
        <mxCell id="FDOjT2-U-1UDbjflAcAx-8" value="" style="rounded=0;orthogonalLoop=1;jettySize=auto;html=1;endArrow=open;endFill=0;dashed=1;dashPattern=8 8;" edge="1" parent="FDOjT2-U-1UDbjflAcAx-1" source="FDOjT2-U-1UDbjflAcAx-10" target="FDOjT2-U-1UDbjflAcAx-11">
          <mxGeometry relative="1" as="geometry" />
        </mxCell>
        <mxCell id="FDOjT2-U-1UDbjflAcAx-9" style="rounded=0;orthogonalLoop=1;jettySize=auto;html=1;endArrow=none;endFill=0;" edge="1" parent="FDOjT2-U-1UDbjflAcAx-1" source="FDOjT2-U-1UDbjflAcAx-10" target="FDOjT2-U-1UDbjflAcAx-12">
          <mxGeometry relative="1" as="geometry" />
        </mxCell>
        <mxCell id="FDOjT2-U-1UDbjflAcAx-29" value="1" style="edgeLabel;html=1;align=center;verticalAlign=middle;resizable=0;points=[];" vertex="1" connectable="0" parent="FDOjT2-U-1UDbjflAcAx-9">
          <mxGeometry x="-0.7787" y="1" relative="1" as="geometry">
            <mxPoint as="offset" />
          </mxGeometry>
        </mxCell>
        <mxCell id="FDOjT2-U-1UDbjflAcAx-22" style="rounded=0;orthogonalLoop=1;jettySize=auto;html=1;endArrow=none;endFill=0;" edge="1" parent="FDOjT2-U-1UDbjflAcAx-1" source="FDOjT2-U-1UDbjflAcAx-10" target="FDOjT2-U-1UDbjflAcAx-20">
          <mxGeometry relative="1" as="geometry" />
        </mxCell>
        <mxCell id="FDOjT2-U-1UDbjflAcAx-30" value="1" style="edgeLabel;html=1;align=center;verticalAlign=middle;resizable=0;points=[];" vertex="1" connectable="0" parent="FDOjT2-U-1UDbjflAcAx-22">
          <mxGeometry x="-0.8419" relative="1" as="geometry">
            <mxPoint as="offset" />
          </mxGeometry>
        </mxCell>
        <mxCell id="FDOjT2-U-1UDbjflAcAx-10" value="&lt;p style=&quot;margin:0px;margin-top:4px;text-align:center;&quot;&gt;&lt;b&gt;Withdraw&lt;/b&gt;&lt;br&gt;&lt;/p&gt;&lt;hr size=&quot;1&quot; style=&quot;border-style:solid;&quot;&gt;&lt;p style=&quot;margin:0px;margin-left:4px;&quot;&gt;&lt;br&gt;&lt;/p&gt;&lt;hr size=&quot;1&quot; style=&quot;border-style:solid;&quot;&gt;&lt;p style=&quot;margin:0px;margin-left:4px;&quot;&gt;&lt;br&gt;&lt;/p&gt;" style="verticalAlign=top;align=left;overflow=fill;html=1;whiteSpace=wrap;" vertex="1" parent="FDOjT2-U-1UDbjflAcAx-1">
          <mxGeometry x="240" y="280" width="100" height="60" as="geometry" />
        </mxCell>
        <mxCell id="FDOjT2-U-1UDbjflAcAx-11" value="&lt;p style=&quot;margin:0px;margin-top:4px;text-align:center;&quot;&gt;&lt;i&gt;&amp;lt;&amp;lt;Interface&amp;gt;&amp;gt;&lt;/i&gt;&lt;br&gt;&lt;b&gt;dataservice.&lt;/b&gt;&lt;b&gt;withdraw&lt;/b&gt;&lt;b&gt;dataservice.W&lt;/b&gt;&lt;b&gt;ithdraw&lt;/b&gt;&lt;b&gt;DataService&lt;/b&gt;&lt;/p&gt;&lt;hr size=&quot;1&quot;&gt;&lt;p style=&quot;margin:0px;margin-left:4px;&quot;&gt;&lt;br&gt;&lt;/p&gt;&lt;hr size=&quot;1&quot;&gt;&lt;p style=&quot;margin:0px;margin-left:4px;&quot;&gt;&lt;br&gt;&lt;/p&gt;" style="verticalAlign=top;align=left;overflow=fill;fontSize=12;fontFamily=Helvetica;html=1;rounded=0;shadow=0;comic=0;labelBackgroundColor=none;strokeWidth=1" vertex="1" parent="FDOjT2-U-1UDbjflAcAx-1">
          <mxGeometry x="127.5" y="500" width="325" height="83" as="geometry" />
        </mxCell>
        <mxCell id="FDOjT2-U-1UDbjflAcAx-12" value="&lt;p style=&quot;margin:0px;margin-top:4px;text-align:center;&quot;&gt;&lt;i&gt;&amp;lt;&amp;lt;Interface&amp;gt;&amp;gt;&lt;/i&gt;&lt;br&gt;&lt;b&gt;CardInfo&lt;/b&gt;&lt;/p&gt;&lt;hr size=&quot;1&quot;&gt;&lt;p style=&quot;margin:0px;margin-left:4px;&quot;&gt;&lt;br&gt;&lt;/p&gt;&lt;hr size=&quot;1&quot;&gt;&lt;p style=&quot;margin:0px;margin-left:4px;&quot;&gt;&lt;br&gt;&lt;/p&gt;" style="verticalAlign=top;align=left;overflow=fill;fontSize=12;fontFamily=Helvetica;html=1;rounded=0;shadow=0;comic=0;labelBackgroundColor=none;strokeWidth=1" vertex="1" parent="FDOjT2-U-1UDbjflAcAx-1">
          <mxGeometry x="440" y="268.5" width="100" height="83" as="geometry" />
        </mxCell>
        <mxCell id="FDOjT2-U-1UDbjflAcAx-13" value="" style="rounded=0;orthogonalLoop=1;jettySize=auto;html=1;endArrow=block;endFill=0;dashed=1;dashPattern=8 8;" edge="1" parent="FDOjT2-U-1UDbjflAcAx-1" source="FDOjT2-U-1UDbjflAcAx-14" target="FDOjT2-U-1UDbjflAcAx-12">
          <mxGeometry relative="1" as="geometry" />
        </mxCell>
        <mxCell id="FDOjT2-U-1UDbjflAcAx-14" value="&lt;p style=&quot;margin:0px;margin-top:4px;text-align:center;&quot;&gt;&lt;b style=&quot;text-wrap: nowrap;&quot;&gt;businesslogic.cardbl.Card&lt;/b&gt;&lt;br&gt;&lt;/p&gt;&lt;hr size=&quot;1&quot; style=&quot;border-style:solid;&quot;&gt;&lt;p style=&quot;margin:0px;margin-left:4px;&quot;&gt;&lt;br&gt;&lt;/p&gt;&lt;hr size=&quot;1&quot; style=&quot;border-style:solid;&quot;&gt;&lt;p style=&quot;margin:0px;margin-left:4px;&quot;&gt;&lt;br&gt;&lt;/p&gt;" style="verticalAlign=top;align=left;overflow=fill;html=1;whiteSpace=wrap;" vertex="1" parent="FDOjT2-U-1UDbjflAcAx-1">
          <mxGeometry x="610" y="310" width="160" height="60" as="geometry" />
        </mxCell>
        <mxCell id="FDOjT2-U-1UDbjflAcAx-15" value="&lt;b style=&quot;text-wrap: nowrap;&quot;&gt;businesslogic.withdrawbl 包&lt;/b&gt;" style="shape=note;whiteSpace=wrap;html=1;backgroundOutline=1;darkOpacity=0.05;size=9;" vertex="1" parent="FDOjT2-U-1UDbjflAcAx-1">
          <mxGeometry x="390" y="140" width="180" height="20" as="geometry" />
        </mxCell>
        <mxCell id="FDOjT2-U-1UDbjflAcAx-16" value="&lt;p style=&quot;margin:0px;margin-top:4px;text-align:center;&quot;&gt;&lt;i&gt;&amp;lt;&amp;lt;Interface&amp;gt;&amp;gt;&lt;/i&gt;&lt;br&gt;&lt;b&gt;BalanceInfo&lt;/b&gt;&lt;/p&gt;&lt;hr size=&quot;1&quot;&gt;&lt;p style=&quot;margin:0px;margin-left:4px;&quot;&gt;&lt;br&gt;&lt;/p&gt;&lt;hr size=&quot;1&quot;&gt;&lt;p style=&quot;margin:0px;margin-left:4px;&quot;&gt;&lt;br&gt;&lt;/p&gt;" style="verticalAlign=top;align=left;overflow=fill;fontSize=12;fontFamily=Helvetica;html=1;rounded=0;shadow=0;comic=0;labelBackgroundColor=none;strokeWidth=1" vertex="1" parent="FDOjT2-U-1UDbjflAcAx-1">
          <mxGeometry x="440" y="180" width="100" height="83" as="geometry" />
        </mxCell>
        <mxCell id="FDOjT2-U-1UDbjflAcAx-17" value="&lt;p style=&quot;margin:0px;margin-top:4px;text-align:center;&quot;&gt;&lt;b style=&quot;text-wrap: nowrap;&quot;&gt;businesslogic.searchbl.Search&lt;/b&gt;&lt;br&gt;&lt;/p&gt;&lt;hr size=&quot;1&quot; style=&quot;border-style:solid;&quot;&gt;&lt;p style=&quot;margin:0px;margin-left:4px;&quot;&gt;&lt;br&gt;&lt;/p&gt;&lt;hr size=&quot;1&quot; style=&quot;border-style:solid;&quot;&gt;&lt;p style=&quot;margin:0px;margin-left:4px;&quot;&gt;&lt;br&gt;&lt;/p&gt;" style="verticalAlign=top;align=left;overflow=fill;html=1;whiteSpace=wrap;" vertex="1" parent="FDOjT2-U-1UDbjflAcAx-1">
          <mxGeometry x="610" y="231.5" width="190" height="60" as="geometry" />
        </mxCell>
        <mxCell id="FDOjT2-U-1UDbjflAcAx-18" value="" style="rounded=0;orthogonalLoop=1;jettySize=auto;html=1;endArrow=block;endFill=0;dashed=1;dashPattern=8 8;" edge="1" parent="FDOjT2-U-1UDbjflAcAx-1" source="FDOjT2-U-1UDbjflAcAx-17" target="FDOjT2-U-1UDbjflAcAx-16">
          <mxGeometry relative="1" as="geometry">
            <mxPoint x="620" y="270" as="sourcePoint" />
            <mxPoint x="550" y="270" as="targetPoint" />
          </mxGeometry>
        </mxCell>
        <mxCell id="FDOjT2-U-1UDbjflAcAx-19" style="rounded=0;orthogonalLoop=1;jettySize=auto;html=1;endArrow=none;endFill=0;" edge="1" parent="FDOjT2-U-1UDbjflAcAx-1" source="FDOjT2-U-1UDbjflAcAx-10" target="FDOjT2-U-1UDbjflAcAx-16">
          <mxGeometry relative="1" as="geometry">
            <mxPoint x="350" y="333" as="sourcePoint" />
            <mxPoint x="450" y="359" as="targetPoint" />
          </mxGeometry>
        </mxCell>
        <mxCell id="FDOjT2-U-1UDbjflAcAx-28" value="1" style="edgeLabel;html=1;align=center;verticalAlign=middle;resizable=0;points=[];" vertex="1" connectable="0" parent="FDOjT2-U-1UDbjflAcAx-19">
          <mxGeometry x="-0.7963" y="1" relative="1" as="geometry">
            <mxPoint as="offset" />
          </mxGeometry>
        </mxCell>
        <mxCell id="FDOjT2-U-1UDbjflAcAx-20" value="&lt;p style=&quot;margin:0px;margin-top:4px;text-align:center;&quot;&gt;&lt;i&gt;&amp;lt;&amp;lt;Interface&amp;gt;&amp;gt;&lt;/i&gt;&lt;br&gt;&lt;b&gt;CardInfoUpdator&lt;/b&gt;&lt;/p&gt;&lt;hr size=&quot;1&quot;&gt;&lt;p style=&quot;margin:0px;margin-left:4px;&quot;&gt;&lt;br&gt;&lt;/p&gt;&lt;hr size=&quot;1&quot;&gt;&lt;p style=&quot;margin:0px;margin-left:4px;&quot;&gt;&lt;br&gt;&lt;/p&gt;" style="verticalAlign=top;align=left;overflow=fill;fontSize=12;fontFamily=Helvetica;html=1;rounded=0;shadow=0;comic=0;labelBackgroundColor=none;strokeWidth=1" vertex="1" parent="FDOjT2-U-1UDbjflAcAx-1">
          <mxGeometry x="440" y="360" width="100" height="83" as="geometry" />
        </mxCell>
        <mxCell id="FDOjT2-U-1UDbjflAcAx-21" value="" style="rounded=0;orthogonalLoop=1;jettySize=auto;html=1;endArrow=block;endFill=0;dashed=1;dashPattern=8 8;" edge="1" parent="FDOjT2-U-1UDbjflAcAx-1" source="FDOjT2-U-1UDbjflAcAx-14" target="FDOjT2-U-1UDbjflAcAx-20">
          <mxGeometry relative="1" as="geometry">
            <mxPoint x="620" y="346" as="sourcePoint" />
            <mxPoint x="550" y="324" as="targetPoint" />
          </mxGeometry>
        </mxCell>
        <mxCell id="FDOjT2-U-1UDbjflAcAx-24" style="rounded=0;orthogonalLoop=1;jettySize=auto;html=1;endArrow=diamondThin;endFill=1;startArrow=open;startFill=0;" edge="1" parent="FDOjT2-U-1UDbjflAcAx-1" source="FDOjT2-U-1UDbjflAcAx-23" target="FDOjT2-U-1UDbjflAcAx-10">
          <mxGeometry relative="1" as="geometry" />
        </mxCell>
        <mxCell id="FDOjT2-U-1UDbjflAcAx-25" value="1" style="edgeLabel;html=1;align=center;verticalAlign=middle;resizable=0;points=[];" vertex="1" connectable="0" parent="FDOjT2-U-1UDbjflAcAx-24">
          <mxGeometry x="-0.898" y="1" relative="1" as="geometry">
            <mxPoint x="7" y="-7" as="offset" />
          </mxGeometry>
        </mxCell>
        <mxCell id="FDOjT2-U-1UDbjflAcAx-27" value="1" style="edgeLabel;html=1;align=center;verticalAlign=middle;resizable=0;points=[];" vertex="1" connectable="0" parent="FDOjT2-U-1UDbjflAcAx-24">
          <mxGeometry x="0.6994" relative="1" as="geometry">
            <mxPoint y="-10" as="offset" />
          </mxGeometry>
        </mxCell>
        <mxCell id="FDOjT2-U-1UDbjflAcAx-23" value="&lt;p style=&quot;margin:0px;margin-top:4px;text-align:center;&quot;&gt;&lt;b&gt;po.WithdrawPO&lt;/b&gt;&lt;br&gt;&lt;/p&gt;&lt;hr size=&quot;1&quot; style=&quot;border-style:solid;&quot;&gt;&lt;p style=&quot;margin:0px;margin-left:4px;&quot;&gt;&lt;br&gt;&lt;/p&gt;&lt;hr size=&quot;1&quot; style=&quot;border-style:solid;&quot;&gt;&lt;p style=&quot;margin:0px;margin-left:4px;&quot;&gt;&lt;br&gt;&lt;/p&gt;" style="verticalAlign=top;align=left;overflow=fill;html=1;whiteSpace=wrap;" vertex="1" parent="FDOjT2-U-1UDbjflAcAx-1">
          <mxGeometry x="40" y="220" width="100" height="60" as="geometry" />
        </mxCell>
      </root>
    </mxGraphModel>
  </diagram>
</mxfile>
